
<svg xmlns="http://www.w3.org/2000/svg" version="1.1" xmlns:xlink="http://www.w3.org/1999/xlink" preserveAspectRatio="none" x="0px" y="0px" width="210px" height="630px" viewBox="0 0 210 630">
<defs>
<g id="Layer0_0_MEMBER_0_MEMBER_0_MEMBER_0_FILL">
<path fill="#FF0000" fill-opacity="0" stroke="none" d="
M 70 140
L 0 140 0 210 70 210 70 140 Z"/>
</g>

<g id="Layer0_1_MEMBER_0_MEMBER_0_MEMBER_0_FILL">
<path fill="#FFFFFF" stroke="none" d="
M 10.5 174.85
L 10.5 175
Q 10.5 185.5 17.7 192.3 24.4 199.5 35 199.5 45.25 199.5 52.25 192.3 59.5 185.3 59.5 175
L 59.5 174.85 10.5 174.85
M 35 150.5
L 33.5 150.65 17 159 33.5 167.5 33.5 172 36.5 172 36.5 150.65 35 150.5 Z"/>
</g>

<g id="Layer0_2_MEMBER_0_MEMBER_0_MEMBER_0_FILL">
<path fill="#FF0000" fill-opacity="0" stroke="none" d="
M 210 140
L 210 70 140 70 140 140 210 140 Z"/>
</g>

<g id="Layer0_3_MEMBER_0_MEMBER_0_MEMBER_0_FILL">
<path fill="#FFFFFF" stroke="none" d="
M 163.55 110.8
Q 163.55 109.95 162.6 108.75 161.5 107.9 160.55 107.9 159.35 107.9 158.35 108.75 157.6 109.8 157.6 110.8 157.6 112.1 158.35 113 159.15 113.8 160.55 113.8 161.75 113.8 162.6 113 163.55 112.05 163.55 110.8
M 192.85 117.8
Q 192.85 113.35 189.55 109.9 186 106.65 181.6 106.65 179.2 106.65 177.35 107.5
L 170.55 119
Q 170.95 123.25 173.75 125.8 176.7 129.25 181.6 129.25 186.25 129.25 189.55 125.8 192.85 122.65 192.85 117.8
M 196.1 86.55
Q 195.3 84.6 194.6 83.55 190.4 76.4 184.1 86.3
L 161.1 125.9
Q 154.75 129.05 151.1 126.15 154.75 129.85 158.1 129.55
L 159.6 129.3
Q 161.4 128.7 163.1 126.5
L 187.1 85.8
Q 188.05 84.55 189.1 84.25 190.55 84.1 192.35 86
L 193.6 87.65
Q 195.85 91.3 193.3 95.65 193.15 95.75 193.05 96.3 194.95 93.45 195.85 91.15
L 196 91
Q 196.85 88.65 196.1 86.55
M 165.1 90
Q 165.1 93.1 167.05 94.75 168.75 96.8 171.85 96.8 174.5 96.8 176.5 94.75 178.55 92.8 178.55 90 178.55 87.6 176.5 85.25 174.5 83.3 171.85 83.3 168.95 83.3 167.05 85.25 165.1 87.35 165.1 90 Z"/>
</g>

<g id="Layer0_4_MEMBER_0_MEMBER_0_MEMBER_0_FILL">
<path fill="#FF0000" fill-opacity="0" stroke="none" d="
M 70 140
L 140 140 140 70 70 70 70 140 Z"/>
</g>

<g id="Layer0_5_MEMBER_0_MEMBER_0_MEMBER_0_FILL">
<path fill="#FFFFFF" stroke="none" d="
M 119.55 85
L 118.75 83.65
Q 115.1 79.25 110.75 79.25 105.9 79.25 102.65 83.65 101.6 85.05 100.8 86.75 103.25 85.15 106 85.15 110.25 85.15 114 89.5 115.65 92.25 116.3 93.65 118.15 92.65 120.3 92.65 124.55 92.65 127.55 96.55 129.7 99.65 130.3 102.55
L 131.75 102.4
Q 133.35 102.4 134.6 103.15
L 134.75 99 134.6 99
Q 134.05 93.85 131 89.65 127.25 84.75 121.9 84.75 121.4 84.75 119.55 85
M 94.5 95.5
L 92.25 95.25
Q 86.9 95.25 83.15 100.15 80.1 104.25 79.5 109.5
L 79 109.5
Q 76.8 109.5 75.25 110.9 77.55 117.25 82.3 121.75 91.3 130.8 104.05 130.8 116.75 130.8 125.65 121.75 131.25 116.3 133.5 109 131.4 107 129.25 107 128.65 107 127.75 107.25 127 104.05 125.05 101.25 122.05 97.25 117.8 97.25 116.25 97.25 113.75 98.3 112.65 96 111.5 94.15 108.15 89.8 103.4 89.8 98.8 89.8 95.4 94.15
L 94.5 95.5 Z"/>
</g>

<g id="Layer0_6_MEMBER_0_MEMBER_0_MEMBER_0_FILL">
<path fill="#FF0000" fill-opacity="0" stroke="none" d="
M 70 70
L 0 70 0 140 70 140 70 70 Z"/>
</g>

<g id="Layer0_7_MEMBER_0_MEMBER_0_MEMBER_0_FILL">
<path fill="#FFFFFF" stroke="none" d="
M 27.25 77.4
Q 25.35 77.35 24.6 79.4
L 11.5 115.65
Q 11.25 116.1 11.25 116.9
L 11.25 117
Q 11.25 118.85 13.55 119.9
L 42.25 132.5
Q 44.2 132.8 44.95 130.5
L 58 94.25
Q 58.25 93.6 58.25 92.9 58.25 91.05 56 90
L 28.7 77.75 27.25 77.4
M 24.5 91.75
L 26.5 86.15
Q 26.95 85.05 28.2 85.5
L 51.75 95.9
Q 52.8 96.65 52.5 97.65
L 50.5 103.3
Q 50.05 104.65 48.9 103.9
L 25.25 93.4
Q 24 93.05 24.5 91.75
M 42 124.25
Q 41.8 125.15 41.25 125.15 40.65 125.6 40 125.15
L 17.75 115.15
Q 17.2 115 16.75 114.25 16.55 113.8 16.75 113.15 16.9 112.6 17.6 112.3 18.2 112.15 18.75 112.3
L 41.15 122.25
Q 41.8 122.8 42 123.15 42.3 123.8 42 124.25
M 33.15 105.4
Q 33.3 105.5 34 106.25 34.3 107 34 107.5 33.95 108.1 33.25 108.25 32.55 108.45 32 108.3
L 21.85 103.75
Q 21.15 103.4 21 102.8 20.7 102.2 20.85 101.65 21.25 101.05 21.6 100.9 22.35 100.6 22.95 100.9
L 33.15 105.4
M 33 114.9
Q 32.2 115.05 31.85 114.8
L 19.85 109.4
Q 19.15 109.1 19 108.5 18.6 108.1 18.95 107.4 19.1 106.8 19.7 106.5 20.1 106.35 20.85 106.65
L 32.9 111.9 33.75 112.8
Q 34.05 113.55 33.9 114 33.6 114.65 33 114.9 Z"/>
</g>

<g id="Layer0_8_MEMBER_0_MEMBER_0_MEMBER_0_FILL">
<path fill="#FF0000" fill-opacity="0" stroke="none" d="
M 140 210
L 210 210 210 140 140 140 140 210 Z"/>
</g>

<g id="Layer0_9_MEMBER_0_MEMBER_0_MEMBER_0_FILL">
<path fill="#FFFFFF" stroke="none" d="
M 192 192
Q 199 185.1 199 175.05 199 165.4 192 158.15 184.95 151.15 175 151.15 165.1 151.15 158.1 158.15 151.1 165.15 151.1 175.05 151.1 185.3 158.1 192 164.8 199.05 175 199.05 185 199.05 192 192
M 193.85 175
Q 193.85 182.95 188.3 188.35 182.8 194 175 194 167.05 194 161.6 188.35 156.1 183.05 156.1 175 156.1 167.3 161.6 161.65 167.25 156.15 175 156.15 182.6 156.15 188.3 161.65 193.85 167.5 193.85 175
M 181.35 168.75
Q 178.55 166.05 175 166.05 171.4 166.05 168.6 168.75 166 171.35 166 175 166 178.9 168.6 181.5 171.1 184.05 175 184.05 178.85 184.05 181.35 181.5 184 178.85 184 175 184 171.55 181.35 168.75 Z"/>
</g>

<g id="Layer0_10_MEMBER_0_MEMBER_0_MEMBER_0_FILL">
<path fill="#FF0000" fill-opacity="0" stroke="none" d="
M 140 140
L 70 140 70 210 140 210 140 140 Z"/>
</g>

<g id="Layer0_11_MEMBER_0_MEMBER_0_MEMBER_0_FILL">
<path fill="#FFFFFF" stroke="none" d="
M 84.3 191.25
Q 85.5 192.75 86.55 193.75 94.15 201.5 105.05 201.5 115.9 201.5 123.5 193.75 124.45 192.85 126.4 190.5 126.65 184.95 125.5 180.25 121.05 181.6 117.5 178.8 120.65 178.8 124.05 175.75 119.1 163.6 104.15 153.65 103.65 161.75 100.65 169.05 104.4 171.3 108.75 170.25 104.7 175.3 98.75 174.25 96.15 179.15 90.25 185.5 98.35 188.25 107.75 188.25 100.1 193.2 87.55 188.25
L 84.3 191.25 Z"/>
</g>

<g id="Layer0_12_MEMBER_0_MEMBER_0_MEMBER_0_FILL">
<path fill="#FF0000" fill-opacity="0" stroke="none" d="
M 70 280
L 70 210 0 210 0 280 70 280 Z"/>
</g>

<g id="Layer0_13_MEMBER_0_MEMBER_0_MEMBER_0_FILL">
<path fill="#FFFFFF" stroke="none" d="
M 53.25 245.5
L 50.75 245.5 59.5 260.75 59.7 261.5 59.5 262
Q 59.2 262.45 59 262.5
L 58.5 262.75 60.95 262.75
Q 61.25 262.75 61.5 262.5 61.7 262.45 62 262
L 62.2 261.5 62 260.75 53.25 245.5
M 48.25 241.5
L 49.5 243.35 52 243.35 50.75 241.5 48.25 241.5
M 50.25 245.5
L 49 243.35 46.5 243.35 47.75 245.5 50.25 245.5
M 44.75 235.25
L 41.75 235.25 38 228.75 37 228.75 33 222
Q 33 221.75 32.65 221.5
L 32 221.25 31.35 221.5 30.85 222 27 228.75 28 228.75 24.2 235.25 22.7 235.25 19.1 241.5 20.6 241.5 19.5 243.35 17.5 243.35 18.6 241.5 16.1 241.5 15 243.35 16.5 243.35 15.25 245.5 18.25 245.5 9.35 260.75 9.3 261.5 9.35 262
Q 9.5 262.3 9.85 262.5 10.15 262.75 10.55 262.75
L 55.45 262.75
Q 55.75 262.75 56 262.5 56.2 262.45 56.5 262
L 56.7 261.5 56.5 260.75 47.75 245.5 44.75 245.5 43.5 243.35 46.5 243.35 45.25 241.5 48.25 241.5 44.75 235.25
M 23.6 241.5
L 21.6 241.5 25.2 235.25 27.2 235.25 23.6 241.5
M 50.25 235.25
L 47.75 235.25 51.25 241.5 53.75 241.5 50.25 235.25 Z"/>
</g>

<g id="Layer0_14_MEMBER_0_MEMBER_0_MEMBER_0_FILL">
<path fill="#FF0000" fill-opacity="0" stroke="none" d="
M 70 0
L 0 0 0 70 70 70 70 0 Z"/>
</g>

<g id="Layer0_15_MEMBER_0_MEMBER_0_MEMBER_0_FILL">
<path fill="#FFFFFF" stroke="none" d="
M 44.4 26.65
L 44.4 23.9
Q 44.4 20.6 41.7 17.75 38.8 14.9 34.9 14.75 31.15 14.75 28.1 17.65 25.35 20.55 25.35 23.9
L 25.35 26.65 28.85 26.65 28.85 24
Q 28.85 21.95 30.5 20.3 32.15 18.4 34.9 18.4 37.45 18.4 39.25 20.3 40.9 22.1 40.9 24
L 40.9 26.65 44.4 26.65
M 49.5 31.65
Q 49.5 30.8 48.75 29.9 48 29.25 47.2 29.25
L 22.75 29.25
Q 21.9 29.25 21.1 29.9 20.5 30.5 20.5 31.5
L 20.5 48.8
Q 20.5 50.05 21.1 50.5 21.85 51.1 22.75 51.1
L 47.2 51.1
Q 48.15 51.1 48.75 50.5 49.5 49.9 49.5 48.8
L 49.5 31.65 Z"/>
</g>

<g id="Layer0_16_MEMBER_0_MEMBER_0_MEMBER_0_FILL">
<path fill="#663399" fill-opacity="0" stroke="none" d="
M 140 280
L 140 210 70 210 70 280 140 280 Z"/>
</g>

<g id="Layer0_17_MEMBER_0_MEMBER_0_MEMBER_0_FILL">
<path fill="#FFFFFF" stroke="none" d="
M 122.05 230.25
L 123.55 230.25
Q 122.45 228.1 120.9 226.5
L 119.3 226.5 118.8 225.8
Q 113.1 220.3 105.4 220.3 97.65 220.3 92.05 225.8
L 91.4 226.5 93 226.5
Q 91.25 228.25 90.25 230.25
L 88.75 230.25
Q 86.6 234.1 86.5 238.6
L 86.5 256.75 84.5 256.75 84.5 261.75 86.5 261.75 86.5 266.5
Q 91.15 270.4 95.8 266.5 97.6 265.3 99.15 264.85 102.15 264.1 105.15 266.5
L 105.25 266.5
Q 109.45 269.85 113.8 267
L 114.65 266.5
Q 119.3 262.75 124.3 266.5
L 124.3 261.75 122.3 261.75 122.3 256.75 124.3 256.75 124.3 238.6
Q 124.25 234.1 122.05 230.25
M 122.5 241.25
Q 122.6 242.25 122.15 242.8 121.3 244.35 118.65 244.25 115.85 243.95 113.15 242.25 112.3 241.8 111.55 241.25 109.7 240 108.8 238.5 107.2 236.15 108.15 234.75 108.95 233.3 111.65 233.5 114.05 233.5 117.25 235.25 120.05 236.95 121.55 239.25 122.35 240.4 122.5 241.25
M 88.3 241.25
Q 88.45 240.25 89.25 239.25 90.6 237.05 93.55 235.25 96.6 233.5 99.15 233.5 101.7 233.3 102.65 234.75 103.5 236.25 102.05 238.5 100.9 240.1 99.15 241.25
L 97.65 242.25
Q 94.7 244 92.05 244.25 89.4 244.3 88.65 242.8 88.15 242.1 88.3 241.25
M 112.55 253.5
L 112.55 254.25
Q 110.1 252.3 107.9 251.5 104.5 250.2 101.5 251.5 99.2 252.35 97.3 254.25
L 97.3 253.5
Q 97.3 252.15 97.55 251.5 97.85 250.3 98.8 248.85
L 99.55 248.1
Q 101.8 245.85 104.9 245.85 108.05 245.85 110.3 248.1
L 111 248.85
Q 111.95 250.2 112.3 251.5 112.55 252.35 112.55 253.5 Z"/>
</g>

<g id="Layer0_18_MEMBER_0_MEMBER_0_MEMBER_0_FILL">
<path fill="#FFFFFF" stroke="none" d="
M 158.3 228.3
Q 156.55 230.15 155.85 231 153.55 234.15 152.35 237.75 151.35 240.95 151.35 245.05
L 151.35 247.35 152.35 247.35 152.6 249.3 151.6 249.3
Q 152 250.95 152.1 251.1
L 152.3 252 153.85 252
Q 155 256 157.6 259.35
L 156.1 259.35
Q 157.1 260.6 158.3 261.75 165.15 268.75 175.05 268.75 184.8 268.75 191.6 261.75 192.65 260.8 193.8 259.35
L 195.35 259.35
Q 198 256.05 199.25 252
L 197.6 252
Q 198 250.95 198.35 249.3
L 199.35 249.3 199.6 247.35 198.6 247.35 198.6 245.05
Q 198.6 241.05 197.6 237.75 196.4 234.3 194.05 231 192.2 228.9 191.6 228.3
L 190.1 226.85 189.85 226.75 192.85 226.75
Q 191.5 225.5 189.3 224.25 186.55 222.75 183.85 222.05
L 180.85 222.05
Q 177.9 221.35 175.05 221.35 172.05 221.35 169.1 222.05
L 172.1 222.05
Q 168.85 222.95 166.75 224.25 164.75 225.25 163.1 226.75
L 160.1 226.75 159.85 226.85 158.3 228.3
M 161.1 231.25
L 161.35 231
Q 164.2 228.3 167.55 226.85
L 168.1 226.75 171.1 226.75
Q 174.1 225.5 178 225.5 181.75 225.5 184.85 226.75
L 181.85 226.75 182.35 226.85
Q 185.65 228.3 188.6 231
L 188.85 231.25
Q 191.6 234 193.25 237.75 194.6 241.2 194.6 245.05 194.6 246.35 194.35 247.35
L 195.5 247.35 195.1 249.3 194.1 249.3
Q 193.9 250.65 193.35 252
L 194.85 252
Q 193.35 255.85 190.35 258.85
L 189.85 259.35 188.35 259.35
Q 182.65 264.75 175 264.75 167.25 264.75 161.6 259.35
L 163.1 259.35 162.6 258.85
Q 159.55 255.85 158.1 252
L 156.6 252 156.35 251.1
Q 155.95 250.15 155.85 249.3
L 156.85 249.3 156.6 247.35 155.55 247.35 155.35 245.5 155.35 245.05
Q 155.35 241.35 156.8 237.75 158.05 234.3 161.1 231.25
M 176.35 228.1
Q 175.65 227.55 175 227.55 174.3 227.55 173.6 228.1 173.1 228.75 173.1 229.35
L 173.1 245.5 173.35 245.85
Q 173.35 246.1 173.6 246.35
L 174.1 246.75 174.6 246.85 174.85 247 184.35 247
Q 185.1 247 185.6 246.35 186.25 245.9 186.25 245.05 186.25 244.35 185.6 243.75 185.1 243.25 184.35 243.25
L 176.85 243.25 176.85 229.35
Q 176.85 228.85 176.35 228.1 Z"/>
</g>

<g id="Layer0_19_MEMBER_0_MEMBER_0_MEMBER_0_MEMBER_0_FILL">
<path fill="#FFFFFF" stroke="none" d="
M 26.4 310.95
L 29.8 323.65
Q 52.4 318.6 58.7 302.25
L 26.4 310.95
M 23.55 316.15
L 22.45 312 7.9 315.9
Q 7 316.15 6.6 316.9 6.1 317.6 6.35 318.55
L 6.35 318.6
Q 6.55 319.5 7.35 319.9 8.05 320.35 9.05 320.1
L 23.55 316.15 Z"/>
</g>

<g id="Layer0_19_MEMBER_1_MEMBER_0_MEMBER_0_MEMBER_0_FILL">
<path fill="#FFFFFF" stroke="none" d="
M 41.75 329.9
L 41.75 333.6
Q 41.8 335.05 42.8 336.1 43.85 337.15 45.25 337.15 46.7 337.1 47.75 336.1 48.75 335 48.75 333.6
L 48.75 318.1
Q 43.7 321.65 36.85 323.8
L 36.85 326.65
Q 36.85 328.1 37.85 329.1 38.95 330.15 40.35 330.2 40.85 330.2 41.75 329.9
M 55.4 331.25
Q 56.55 331.35 57.3 330.5 58.15 329.65 58.15 328.55 58.15 327.4 57.3 326.55 56.5 325.75 55.4 325.8 54.25 325.8 53.45 326.6 52.65 327.4 52.65 328.5 52.65 329.65 53.45 330.45 54.25 331.25 55.4 331.25
M 48.75 312.3
Q 48.75 310.8 47.75 309.8
L 47.6 309.65 40.05 317.15 36.85 313.9 36.85 319.55
Q 43.75 317.15 48.75 312.9
L 48.75 312.3 Z"/>
</g>

<g id="Layer0_20_MEMBER_0_MEMBER_0_MEMBER_0_FILL">
<path fill="#FF0000" fill-opacity="0" stroke="none" d="
M 70 280
L 0 280 0 350 70 350 70 280 Z"/>
</g>

<g id="Layer0_21_MEMBER_0_MEMBER_0_MEMBER_0_FILL">
<path fill="#FF0000" fill-opacity="0" stroke="none" d="
M 70 280
L 0 280 0 350 70 350 70 280 Z"/>
</g>

<g id="Layer0_22_FILL">
<path fill="#FFFFFF" stroke="none" d="
M 35 60.9
Q 38 60.9 40.15 58.75 41.55 57.35 42.05 55.6
L 29.95 58.85
Q 32.05 60.9 35 60.9
M 42.3 47.05
Q 42.35 46.55 42.5 46.05
L 27.7 50.05 27.7 53.6
Q 27.7 54.2 27.8 54.75
L 42.3 50.85 42.3 47.05
M 45.1 40.7
Q 46.25 39.85 47.3 38.8 52.4 33.7 52.4 26.5 52.4 19.3 47.3 14.2 42.2 9.1 35 9.1 27.8 9.1 22.7 14.2 17.6 19.3 17.6 26.5 17.6 33.7 22.7 38.8 24.1 40.2 25.65 41.2 26.9 42.6 27.55 45.4
L 45.1 40.7
M 45.25 16.4
L 45.25 16.35
Q 49.4 20.5 49.45 26.4 49.45 27.3 48.8 28 48.15 28.65 47.25 28.65 46.3 28.65 45.65 28 44.95 27.35 44.95 26.45 44.9 22.4 42.05 19.55 39.55 16.95 36.05 16.65 35.1 16.55 34.55 15.85 33.9 15.1 34 14.2 34.1 13.25 34.85 12.7 35.55 12.05 36.45 12.15 41.55 12.65 45.25 16.4 Z"/>
</g>
</defs>

<g transform="matrix( 1, 0, 0, 1, 0,0) ">
<use xlink:href="#Layer0_0_MEMBER_0_MEMBER_0_MEMBER_0_FILL"/>
</g>

<g transform="matrix( 1, 0, 0, 1, 0,0) ">
<use xlink:href="#Layer0_1_MEMBER_0_MEMBER_0_MEMBER_0_FILL"/>
</g>

<g transform="matrix( 1, 0, 0, 1, 0,0) ">
<use xlink:href="#Layer0_2_MEMBER_0_MEMBER_0_MEMBER_0_FILL"/>
</g>

<g transform="matrix( 1, 0, 0, 1, 0,0) ">
<use xlink:href="#Layer0_3_MEMBER_0_MEMBER_0_MEMBER_0_FILL"/>
</g>

<g transform="matrix( 1, 0, 0, 1, 0,0) ">
<use xlink:href="#Layer0_4_MEMBER_0_MEMBER_0_MEMBER_0_FILL"/>
</g>

<g transform="matrix( 1, 0, 0, 1, 0,0) ">
<use xlink:href="#Layer0_5_MEMBER_0_MEMBER_0_MEMBER_0_FILL"/>
</g>

<g transform="matrix( 1, 0, 0, 1, 0,0) ">
<use xlink:href="#Layer0_6_MEMBER_0_MEMBER_0_MEMBER_0_FILL"/>
</g>

<g transform="matrix( 1, 0, 0, 1, 0,0) ">
<use xlink:href="#Layer0_7_MEMBER_0_MEMBER_0_MEMBER_0_FILL"/>
</g>

<g transform="matrix( 1, 0, 0, 1, 0,0) ">
<use xlink:href="#Layer0_8_MEMBER_0_MEMBER_0_MEMBER_0_FILL"/>
</g>

<g transform="matrix( 1, 0, 0, 1, 0,0) ">
<use xlink:href="#Layer0_9_MEMBER_0_MEMBER_0_MEMBER_0_FILL"/>
</g>

<g transform="matrix( 1, 0, 0, 1, 0,0) ">
<use xlink:href="#Layer0_10_MEMBER_0_MEMBER_0_MEMBER_0_FILL"/>
</g>

<g transform="matrix( 1, 0, 0, 1, 0,0) ">
<use xlink:href="#Layer0_11_MEMBER_0_MEMBER_0_MEMBER_0_FILL"/>
</g>

<g transform="matrix( 1, 0, 0, 1, 0,0) ">
<use xlink:href="#Layer0_12_MEMBER_0_MEMBER_0_MEMBER_0_FILL"/>
</g>

<g transform="matrix( 1, 0, 0, 1, 0,0) ">
<use xlink:href="#Layer0_13_MEMBER_0_MEMBER_0_MEMBER_0_FILL"/>
</g>

<g transform="matrix( 1, 0, 0, 1, 0,0) ">
<use xlink:href="#Layer0_14_MEMBER_0_MEMBER_0_MEMBER_0_FILL"/>
</g>

<g transform="matrix( 1, 0, 0, 1, 0,0) ">
<use xlink:href="#Layer0_15_MEMBER_0_MEMBER_0_MEMBER_0_FILL"/>
</g>

<g transform="matrix( 1, 0, 0, 1, 0,0) ">
<use xlink:href="#Layer0_16_MEMBER_0_MEMBER_0_MEMBER_0_FILL"/>
</g>

<g transform="matrix( 1, 0, 0, 1, 0,0) ">
<use xlink:href="#Layer0_17_MEMBER_0_MEMBER_0_MEMBER_0_FILL"/>
</g>

<g transform="matrix( 1, 0, 0, 1, 0,0) ">
<use xlink:href="#Layer0_18_MEMBER_0_MEMBER_0_MEMBER_0_FILL"/>
</g>

<g transform="matrix( 1, 0, 0, 1, 0,0) ">
<use xlink:href="#Layer0_19_MEMBER_0_MEMBER_0_MEMBER_0_MEMBER_0_FILL"/>
</g>

<g transform="matrix( 1, 0, 0, 1, 0,0) ">
<use xlink:href="#Layer0_19_MEMBER_1_MEMBER_0_MEMBER_0_MEMBER_0_FILL"/>
</g>

<g transform="matrix( 1, 0, 0, 1, 0,0) ">
<use xlink:href="#Layer0_20_MEMBER_0_MEMBER_0_MEMBER_0_FILL"/>
</g>

<g transform="matrix( 1, 0, 0, 1, 70,0) ">
<use xlink:href="#Layer0_21_MEMBER_0_MEMBER_0_MEMBER_0_FILL"/>
</g>

<g transform="matrix( 1, 0, 0, 1, 70,280) ">
<use xlink:href="#Layer0_22_FILL"/>
</g>
</svg>
