
<svg xmlns="http://www.w3.org/2000/svg" version="1.1" xmlns:xlink="http://www.w3.org/1999/xlink" preserveAspectRatio="none" x="0px" y="0px" width="210px" height="630px" viewBox="0 0 210 630">
<defs>
<g id="Layer0_0_FILL">
<path fill="#FFFFFF" stroke="none" d="
M 174.15 361.2
Q 170.4 362.45 168.8 365.4
L 167.55 367.85 170.65 369.5 171.85 367.15
Q 172.8 365.3 175.05 364.65 177.35 363.7 179.8 365 181.9 366.1 182.75 368.65 183.4 371.05 182.55 372.75
L 181.35 375.1 184.4 376.7 185.65 374.25
Q 187.2 371.35 186.15 367.55 184.85 363.65 181.5 361.75 178.2 360 174.15 361.2
M 161.6 385
Q 161.15 385.7 161.3 386.7
L 164.45 403.65
Q 164.75 405.05 165.35 405.2 166.15 405.65 167.1 405.5
L 191.1 401.05
Q 192.05 400.85 192.6 400.15 193.2 399.6 192.95 398.35
L 189.85 381.5
Q 189.65 380.7 188.85 379.95 187.8 379.5 187.15 379.65
L 163.1 384.1
Q 162.25 384.2 161.6 385
M 91.7 385.65
Q 91.25 386.35 91.45 387.35
L 95.05 404.25
Q 95.35 405.65 95.95 405.8 96.8 406.25 97.7 406.05
L 121.6 401
Q 122.55 400.8 123.05 400.05 123.65 399.5 123.4 398.25
L 119.85 381.45
Q 119.65 380.65 118.8 379.9 117.75 379.5 117.1 379.65
L 93.2 384.7
Q 92.35 384.85 91.7 385.65
M 102.2 366.6
Q 103.25 364.8 105.5 364.25 107.85 363.4 110.25 364.8 112.3 366 113.05 368.6 113.6 371 112.65 372.65
L 111.35 374.95 114.35 376.7 115.7 374.3
Q 117.35 371.45 116.5 367.65 115.35 363.7 112.1 361.65 108.85 359.75 104.75 360.75 100.95 361.85 99.25 364.75
L 97.9 367.15 100.9 368.9 102.2 366.6 Z"/>
</g>

<g id="Layer0_1_MEMBER_0_MEMBER_0_MEMBER_0_FILL">
<path fill="#FF0000" fill-opacity="0" stroke="none" d="
M 70 140
L 0 140 0 210 70 210 70 140 Z"/>
</g>

<g id="Layer0_2_MEMBER_0_MEMBER_0_MEMBER_0_FILL">
<path fill="#FFFFFF" stroke="none" d="
M 10.5 174.9
L 10.5 175
Q 10.5 185.6 17.7 192.4 24.35 199.5 35 199.5 45.15 199.5 52.25 192.4 59.5 185.25 59.5 175
L 59.5 174.9 10.5 174.9
M 35 150.5
L 33.5 150.65 17 159 33.5 167.5 33.5 172 36.5 172 36.5 150.65 35 150.5 Z"/>
</g>

<g id="Layer0_3_MEMBER_0_MEMBER_0_MEMBER_0_FILL">
<path fill="#FF0000" fill-opacity="0" stroke="none" d="
M 210 140
L 210 70 140 70 140 140 210 140 Z"/>
</g>

<g id="Layer0_4_MEMBER_0_MEMBER_0_MEMBER_0_FILL">
<path fill="#FFFFFF" stroke="none" d="
M 163.55 110.85
Q 163.55 110.1 162.6 108.75 161.4 107.95 160.55 107.95 159.3 107.95 158.35 108.75 157.6 109.95 157.6 110.85 157.6 112.25 158.35 113 159.05 113.85 160.55 113.85 161.7 113.85 162.6 113 163.55 112.05 163.55 110.85
M 192.85 117.85
Q 192.85 113.4 189.55 109.95 185.9 106.7 181.6 106.7 179.2 106.7 177.35 107.5
L 170.55 119
Q 170.85 123.35 173.75 125.85 176.65 129.25 181.6 129.25 186.15 129.25 189.55 125.85 192.85 122.7 192.85 117.85
M 196.1 86.6
Q 195.3 84.65 194.6 83.6 190.4 76.45 184.1 86.35
L 161.1 125.95
Q 154.7 129.05 151.1 126.2 154.65 129.9 158.1 129.65
L 159.6 129.4
Q 161.3 128.75 163.1 126.5
L 187.1 85.85
Q 187.9 84.7 189.1 84.25 190.55 84.2 192.35 86
L 193.6 87.7
Q 195.85 91.35 193.3 95.7 193.15 95.75 193.05 96.35 194.95 93.55 195.85 91.2
L 196 91
Q 196.85 88.65 196.1 86.6
M 165.1 90
Q 165.1 93.25 167.05 94.75 168.65 96.85 171.85 96.85 174.55 96.85 176.5 94.75 178.55 92.85 178.55 90 178.55 87.75 176.5 85.25 174.35 83.35 171.85 83.35 168.95 83.35 167.05 85.25 165.1 87.5 165.1 90 Z"/>
</g>

<g id="Layer0_5_MEMBER_0_MEMBER_0_MEMBER_0_FILL">
<path fill="#FF0000" fill-opacity="0" stroke="none" d="
M 140 70
L 70 70 70 140 140 140 140 70 Z"/>
</g>

<g id="Layer0_6_MEMBER_0_MEMBER_0_MEMBER_0_FILL">
<path fill="#FFFFFF" stroke="none" d="
M 119.55 85
L 118.75 83.7
Q 115 79.25 110.75 79.25 105.9 79.25 102.65 83.7 101.55 85.15 100.8 86.75 103.2 85.2 106 85.2 110.25 85.2 114 89.5
L 116.3 93.7
Q 118 92.7 120.3 92.7 124.55 92.7 127.55 96.6 129.75 99.95 130.3 102.6
L 131.75 102.45
Q 133.35 102.45 134.6 103.2
L 134.75 99 134.6 99
Q 133.9 93.75 131 89.7 127.2 84.75 121.9 84.75
L 119.55 85
M 94.5 95.5
L 92.25 95.25
Q 86.95 95.25 83.15 100.2 80.1 104.2 79.5 109.5
L 79 109.5
Q 76.8 109.5 75.25 110.95 77.5 117.3 82.3 121.75 91.3 130.9 104.05 130.9 116.65 130.9 125.65 121.75 131.25 116.3 133.5 109 131.2 107 129.25 107 128.65 107 127.75 107.25 127 104.35 125.05 101.25 122.05 97.25 117.8 97.25 116.2 97.25 113.75 98.35 112.5 95.8 111.5 94.2 108.15 89.85 103.4 89.85 98.65 89.85 95.4 94.2
L 94.5 95.5 Z"/>
</g>

<g id="Layer0_7_MEMBER_0_MEMBER_0_MEMBER_0_FILL">
<path fill="#FF0000" fill-opacity="0" stroke="none" d="
M 70 70
L 0 70 0 140 70 140 70 70 Z"/>
</g>

<g id="Layer0_8_MEMBER_0_MEMBER_0_MEMBER_0_FILL">
<path fill="#FFFFFF" stroke="none" d="
M 27.25 77.45
Q 25.35 77.45 24.6 79.45
L 11.5 115.7
Q 11.25 116.1 11.25 116.95
L 11.25 117
Q 11.25 118.9 13.55 119.95
L 42.25 132.5
Q 44.2 132.8 44.95 130.5
L 58 94.25
Q 58.25 93.6 58.25 92.95 58.25 91.2 56 90
L 28.7 77.75 27.25 77.45
M 26.5 86.2
Q 26.95 85.2 28.2 85.5
L 51.75 95.95
Q 52.8 96.7 52.5 97.7
L 50.5 103.35
Q 50.05 104.7 48.9 103.95
L 25.25 93.45
Q 24 93.15 24.5 91.75
L 26.5 86.2
M 41.15 122.25
L 42 123.2
Q 42.3 123.9 42 124.25 41.7 125.2 41.25 125.2 40.65 125.65 40 125.2
L 17.75 115.2
Q 17.25 115.1 16.75 114.25 16.45 113.9 16.75 113.2 16.9 112.55 17.6 112.35 18.2 112.2 18.75 112.35
L 41.15 122.25
M 33.15 105.45
L 34 106.25
Q 34.3 107.1 34 107.5 33.95 108.25 33.25 108.25 32.35 108.55 32 108.35
L 21.85 103.75
Q 21.15 103.45 21 102.85 20.7 102.3 20.85 101.7 21.25 101.1 21.6 100.95 22.35 100.65 22.95 100.95
L 33.15 105.45
M 33 114.95
Q 32.1 115.1 31.85 114.85
L 19.85 109.45
Q 19.15 109.15 19 108.5 18.5 108.2 18.95 107.45 19.1 106.95 19.7 106.5 20.15 106.45 20.85 106.7
L 32.9 111.95 33.75 112.85
Q 34.05 113.6 33.9 114 33.6 114.65 33 114.95 Z"/>
</g>

<g id="Layer0_9_MEMBER_0_MEMBER_0_MEMBER_0_FILL">
<path fill="#FF0000" fill-opacity="0" stroke="none" d="
M 210 140
L 140 140 140 210 210 210 210 140 Z"/>
</g>

<g id="Layer0_10_MEMBER_0_MEMBER_0_MEMBER_0_FILL">
<path fill="#FFFFFF" stroke="none" d="
M 192 192
Q 199 185.15 199 175.15 199 165.55 192 158.15 184.95 151.15 175 151.15 165.1 151.15 158.1 158.15 151.1 165.15 151.1 175.15 151.1 185.45 158.1 192 164.8 199.15 175 199.15 184.85 199.15 192 192
M 193.85 175
Q 193.85 183 188.3 188.4 182.8 194 175 194 166.9 194 161.6 188.4 156.1 183.2 156.1 175 156.1 167.3 161.6 161.65 167.25 156.15 175 156.15 182.6 156.15 188.3 161.65 193.85 167.65 193.85 175
M 181.35 168.75
Q 178.55 166.15 175 166.15 171.3 166.15 168.6 168.75 166 171.35 166 175 166 179.05 168.6 181.5 171.2 184.15 175 184.15 178.7 184.15 181.35 181.5 184 178.85 184 175 184 171.7 181.35 168.75 Z"/>
</g>

<g id="Layer0_11_MEMBER_0_MEMBER_0_MEMBER_0_FILL">
<path fill="#FF0000" fill-opacity="0" stroke="none" d="
M 140 140
L 70 140 70 210 140 210 140 140 Z"/>
</g>

<g id="Layer0_12_MEMBER_0_MEMBER_0_MEMBER_0_FILL">
<path fill="#FFFFFF" stroke="none" d="
M 107.75 188.25
Q 100.1 193.35 87.55 188.25
L 84.3 191.25
Q 85.45 192.9 86.55 193.75 94 201.5 105.05 201.5 115.9 201.5 123.5 193.75 124 193.3 126.4 190.5 126.65 185.05 125.5 180.25 121 181.65 117.5 178.9 120.55 178.9 124.05 175.75 119.1 163.75 104.15 153.65 103.6 161.85 100.65 169.15 104.2 171.3 108.75 170.25 104.65 175.3 98.75 174.25 96.15 179.15 90.25 185.5 98.2 188.25 107.75 188.25 Z"/>
</g>

<g id="Layer0_13_MEMBER_0_MEMBER_0_MEMBER_0_FILL">
<path fill="#FF0000" fill-opacity="0" stroke="none" d="
M 0 210
L 0 280 70 280 70 210 0 210 Z"/>
</g>

<g id="Layer0_14_MEMBER_0_MEMBER_0_MEMBER_0_FILL">
<path fill="#FFFFFF" stroke="none" d="
M 53.25 245.5
L 50.75 245.5 59.5 260.75 59.7 261.5 59.5 262
Q 59.15 262.5 59 262.5
L 58.5 262.75 60.95 262.75
Q 61.25 262.75 61.5 262.5 61.65 262.5 62 262
L 62.2 261.5 62 260.75 53.25 245.5
M 48.25 241.5
L 49.5 243.4 52 243.4 50.75 241.5 48.25 241.5
M 46.5 243.4
L 47.75 245.5 50.25 245.5 49 243.4 46.5 243.4
M 44.75 235.25
L 41.75 235.25 38 228.75 37 228.75 33 222 32.65 221.5 32 221.25 31.35 221.5 30.85 222 27 228.75 28 228.75 24.2 235.25 22.7 235.25 19.1 241.5 20.6 241.5 19.5 243.4 17.5 243.4 18.6 241.5 16.1 241.5 15 243.4 16.5 243.4 15.25 245.5 18.25 245.5 9.35 260.75 9.3 261.5 9.35 262
Q 9.4 262.35 9.85 262.5 10.05 262.75 10.55 262.75
L 55.45 262.75
Q 55.75 262.75 56 262.5 56.15 262.5 56.5 262
L 56.7 261.5 56.5 260.75 47.75 245.5 44.75 245.5 43.5 243.4 46.5 243.4 45.25 241.5 48.25 241.5 44.75 235.25
M 23.6 241.5
L 21.6 241.5 25.2 235.25 27.2 235.25 23.6 241.5
M 50.25 235.25
L 47.75 235.25 51.25 241.5 53.75 241.5 50.25 235.25 Z"/>
</g>

<g id="Layer0_15_MEMBER_0_MEMBER_0_MEMBER_0_FILL">
<path fill="#FF0000" fill-opacity="0" stroke="none" d="
M 0 70
L 70 70 70 0 0 0 0 70 Z"/>
</g>

<g id="Layer0_16_MEMBER_0_MEMBER_0_MEMBER_0_FILL">
<path fill="#FFFFFF" stroke="none" d="
M 40.9 24
L 40.9 26.65 44.4 26.65 44.4 23.9
Q 44.4 20.6 41.7 17.75 38.8 14.9 34.9 14.75 31.15 14.75 28.1 17.65 25.35 20.55 25.35 23.9
L 25.35 26.65 28.85 26.65 28.85 24
Q 28.85 21.9 30.5 20.3 32.15 18.4 34.9 18.4 37.3 18.4 39.25 20.3 40.9 22.1 40.9 24
M 48.75 29.9
Q 47.85 29.25 47.2 29.25
L 22.75 29.25
Q 21.9 29.25 21.1 29.9 20.5 30.5 20.5 31.5
L 20.5 48.8
Q 20.5 50.25 21.1 50.5 21.85 51.1 22.75 51.1
L 47.2 51.1
Q 48.15 51.1 48.75 50.5 49.5 50.05 49.5 48.8
L 49.5 31.65
Q 49.5 30.8 48.75 29.9 Z"/>
</g>

<g id="Layer0_17_MEMBER_0_MEMBER_0_MEMBER_0_FILL">
<path fill="#663399" fill-opacity="0" stroke="none" d="
M 140 280
L 140 210 70 210 70 280 140 280 Z"/>
</g>

<g id="Layer0_18_MEMBER_0_MEMBER_0_MEMBER_0_FILL">
<path fill="#FFFFFF" stroke="none" d="
M 122.05 230.25
L 123.55 230.25
Q 122.45 228.3 120.9 226.5
L 119.3 226.5 118.8 225.9
Q 113.15 220.4 105.4 220.4 97.5 220.4 92.05 225.9
L 91.4 226.5 93 226.5
Q 91.25 228.25 90.25 230.25
L 88.75 230.25
Q 86.6 234.15 86.5 238.65
L 86.5 256.75 84.5 256.75 84.5 261.75 86.5 261.75 86.5 266.5
Q 91.1 270.55 95.8 266.5 97.65 265.3 99.15 264.9 102.15 264.15 105.15 266.5
L 105.25 266.5
Q 109.35 269.95 113.8 267
L 114.65 266.5
Q 119.3 262.75 124.3 266.5
L 124.3 261.75 122.3 261.75 122.3 256.75 124.3 256.75 124.3 238.65
Q 124.25 234.15 122.05 230.25
M 122.5 241.25
Q 122.6 242.35 122.15 242.9 121.15 244.4 118.65 244.25 116 244.1 113.15 242.25 112.05 241.75 111.55 241.25 109.7 240.15 108.8 238.5 107.15 236.2 108.15 234.75 108.9 233.45 111.65 233.5 113.9 233.5 117.25 235.25 120.15 237.1 121.55 239.25 122.35 240.55 122.5 241.25
M 88.3 241.25
Q 88.45 240.25 89.25 239.25 90.55 237.1 93.55 235.25 96.6 233.5 99.15 233.5 101.7 233.4 102.65 234.75 103.5 236.25 102.05 238.5 100.85 240.2 99.15 241.25
L 97.65 242.25
Q 94.7 244 92.05 244.25 89.4 244.4 88.65 242.9 88.15 242.2 88.3 241.25
M 112.55 253.5
L 112.55 254.25
Q 110.2 252.45 107.9 251.5 104.5 250.3 101.5 251.5 99.2 252.35 97.3 254.25
L 97.3 253.5
Q 97.3 252 97.55 251.5 97.85 250.3 98.8 248.9
L 99.55 248.15
Q 101.8 245.9 104.9 245.9 108.05 245.9 110.3 248.15
L 111 248.9
Q 111.9 250.4 112.3 251.5 112.55 252.65 112.55 253.5 Z"/>
</g>

<g id="Layer0_19_MEMBER_0_MEMBER_0_MEMBER_0_FILL">
<path fill="#FFFFFF" stroke="none" d="
M 160.1 226.75
L 159.85 226.9 158.3 228.4
Q 156.7 229.95 155.85 231 153.55 234.1 152.35 237.75 151.35 240.7 151.35 245.15
L 151.35 247.4 152.35 247.4 152.6 249.4 151.6 249.4
Q 151.9 250.95 152.1 251.15
L 152.3 252 153.85 252
Q 154.9 256 157.6 259.4
L 156.1 259.4
Q 157.1 260.6 158.3 261.75 165 268.75 175.05 268.75 184.8 268.75 191.6 261.75 192.35 261.05 193.8 259.4
L 195.35 259.4
Q 198 256 199.25 252
L 197.6 252 198.35 249.4 199.35 249.4 199.6 247.4 198.6 247.4 198.6 245.15
Q 198.6 241.3 197.6 237.75 196.35 234.25 194.05 231
L 190.1 226.9 189.85 226.75 192.85 226.75
Q 191.15 225.35 189.3 224.25 186.65 222.85 183.85 222.15
L 180.85 222.15
Q 178 221.4 175.05 221.4 171.8 221.4 169.1 222.15
L 172.1 222.15
Q 169 222.95 166.75 224.25 164.3 225.55 163.1 226.75
L 160.1 226.75
M 161.1 231.25
L 161.35 231
Q 164.1 228.4 167.55 226.9
L 168.1 226.75 171.1 226.75
Q 174.3 225.5 178 225.5 181.4 225.5 184.85 226.75
L 181.85 226.75 182.35 226.9
Q 185.7 228.35 188.6 231
L 188.85 231.25
Q 191.6 234.15 193.25 237.75 194.6 241.35 194.6 245.15 194.6 246.15 194.35 247.4
L 195.5 247.4 195.1 249.4 194.1 249.4 193.35 252 194.85 252
Q 193.35 255.9 190.35 258.9
L 189.85 259.4 188.35 259.4
Q 182.65 264.75 175 264.75 167.15 264.75 161.6 259.4
L 163.1 259.4 162.6 258.9
Q 159.55 255.9 158.1 252
L 156.6 252 156.35 251.15
Q 155.95 250.4 155.85 249.4
L 156.85 249.4 156.6 247.4 155.55 247.4 155.35 245.5 155.35 245.15
Q 155.35 241.25 156.8 237.75 157.95 234.4 161.1 231.25
M 173.6 228.15
Q 173.1 228.7 173.1 229.4
L 173.1 245.5 173.35 245.9
Q 173.35 246.2 173.6 246.4
L 174.1 246.75 174.85 247 184.35 247
Q 185.15 247 185.6 246.4 186.25 245.9 186.25 245.15 186.25 244.55 185.6 243.75 184.85 243.25 184.35 243.25
L 176.85 243.25 176.85 229.4
Q 176.85 229.15 176.35 228.15 175.65 227.65 175 227.65 174.15 227.65 173.6 228.15 Z"/>
</g>

<g id="Layer0_20_MEMBER_0_MEMBER_0_MEMBER_0_FILL">
<path fill="#FFFFFF" stroke="none" d="
M 26.35 311
L 29.75 323.65
Q 52.4 318.7 58.7 302.25
L 26.35 311
M 23.5 316.15
L 22.45 312 7.9 315.9
Q 6.9 316.3 6.55 316.9 6.1 317.75 6.3 318.55
L 6.3 318.65
Q 6.5 319.5 7.3 319.9 8.05 320.35 9.05 320.15
L 23.5 316.15 Z"/>
</g>

<g id="Layer0_21_MEMBER_0_MEMBER_0_MEMBER_0_FILL">
<path fill="#FFFFFF" stroke="none" d="
M 41.75 329.9
L 41.75 333.65
Q 41.75 335.1 42.75 336.15 43.75 337.15 45.25 337.15 46.6 337.15 47.75 336.15 48.75 335 48.75 333.65
L 48.75 318.15
Q 43.65 321.75 36.75 323.8
L 36.75 326.65
Q 36.75 328.05 37.75 329.15 38.85 330.15 40.25 330.25 40.85 330.25 41.75 329.9
M 58.15 328.55
Q 58.15 327.45 57.25 326.55 56.5 325.8 55.4 325.8 54.2 325.8 53.45 326.65 52.65 327.4 52.65 328.5 52.65 329.75 53.45 330.5 54.2 331.25 55.4 331.25 56.5 331.5 57.25 330.5 58.15 329.75 58.15 328.55
M 48.75 312.3
Q 48.75 310.95 47.75 309.8
L 47.5 309.65 40 317.15 36.75 313.9 36.75 319.55
Q 43.8 317.15 48.75 312.9
L 48.75 312.3 Z"/>
</g>

<g id="Layer0_22_MEMBER_0_MEMBER_0_MEMBER_0_FILL">
<path fill="#FF0000" fill-opacity="0" stroke="none" d="
M 70 280
L 0 280 0 350 70 350 70 280 Z"/>
</g>

<g id="Layer0_23_MEMBER_0_MEMBER_0_MEMBER_0_FILL">
<path fill="#FF0000" fill-opacity="0" stroke="none" d="
M 70 350
L 140 350 140 280 70 280 70 350 Z"/>
</g>

<g id="Layer0_24_MEMBER_0_MEMBER_0_MEMBER_0_FILL">
<path fill="#FFFFFF" stroke="none" d="
M 105 341
Q 107.9 341 110.15 338.75 111.55 337.35 112 335.65
L 99.9 338.9
Q 102.1 341 105 341
M 97.65 330.05
L 97.75 334.75 112.25 330.9 112.25 327.05
Q 112.3 326.4 112.5 326.05
L 97.65 330.05
M 117.25 294.25
Q 112.1 289.15 105 289.15 97.85 289.15 92.65 294.25 87.55 299.45 87.55 306.5 87.55 313.7 92.65 318.8 93.9 320.05 95.55 321.25 96.8 322.6 97.5 325.5
L 115.05 320.75
Q 116.4 319.8 117.25 318.8 122.4 313.75 122.4 306.5 122.4 299.4 117.25 294.25
M 104.8 292.75
Q 105.55 292.15 106.4 292.15 111.55 292.7 115.25 296.4 119.4 300.65 119.4 306.4 119.4 307.35 118.75 308 118.1 308.65 117.25 308.65 116.15 308.65 115.65 308 114.9 307.5 114.9 306.5 114.9 302.45 112 299.55 109.55 297.1 106 296.65 105.1 296.65 104.5 295.9 103.85 295.15 104 294.25 104.1 293.35 104.8 292.75 Z"/>
</g>

<g id="Layer0_25_MEMBER_0_MEMBER_0_MEMBER_0_FILL">
<path fill="#FF0000" fill-opacity="0" stroke="none" d="
M 140 280
L 140 350 210 350 210 280 140 280 Z"/>
</g>

<g id="Layer0_26_MEMBER_0_MEMBER_0_MEMBER_0_FILL">
<path fill="#FFFFFF" stroke="none" d="
M 161.25 304.25
L 161.25 310.25
Q 161.2 312.05 162.85 312.05
L 170.1 312.05 170.1 336.1
Q 170.2 337.6 171.45 337.75
L 178.5 337.75
Q 179.75 337.6 179.75 336.1
L 179.75 312.05 187.15 312.05
Q 188.6 312.05 188.75 310.75
L 188.75 303.75
Q 188.6 302.5 187.15 302.4
L 179.75 302.4 179.75 293.95
Q 179.75 292.5 178.5 292.4
L 171.45 292.4
Q 170.2 292.5 170.1 293.95
L 170.1 302.4 162.85 302.4
Q 161.1 302.5 161.25 304.25 Z"/>
</g>

<g id="Layer0_27_MEMBER_0_MEMBER_0_MEMBER_0_FILL">
<path fill="#FF0000" fill-opacity="0" stroke="none" d="
M 0 70
L 70 70 70 0 0 0 0 70 Z"/>
</g>

<g id="Layer0_28_MEMBER_0_MEMBER_0_MEMBER_0_FILL">
<path fill="#FFFFFF" stroke="none" d="
M 48.75 29.9
Q 47.85 29.25 47.2 29.25
L 22.75 29.25
Q 21.9 29.25 21.1 29.9 20.5 30.5 20.5 31.5
L 20.5 48.8
Q 20.5 50.25 21.1 50.5 21.85 51.1 22.75 51.1
L 47.2 51.1
Q 48.15 51.1 48.75 50.5 49.5 50.05 49.5 48.8
L 49.5 31.65
Q 49.5 30.8 48.75 29.9
M 40.9 24
L 40.9 26.65 44.4 26.65 44.4 23.9
Q 44.4 20.6 41.7 17.75 38.8 14.9 34.9 14.75 31.15 14.75 28.1 17.65 25.35 20.55 25.35 23.9
L 25.35 26.65 28.85 26.65 28.85 24
Q 28.85 21.9 30.5 20.3 32.15 18.4 34.9 18.4 37.3 18.4 39.25 20.3 40.9 22.1 40.9 24 Z"/>
</g>

<g id="Layer0_29_MEMBER_0_MEMBER_0_MEMBER_0_FILL">
<path fill="#FF0000" fill-opacity="0" stroke="none" d="
M 0 70
L 70 70 70 0 0 0 0 70 Z"/>
</g>

<g id="Layer0_30_MEMBER_0_MEMBER_0_MEMBER_0_FILL">
<path fill="#FF0000" fill-opacity="0" stroke="none" d="
M 0 70
L 70 70 70 0 0 0 0 70 Z"/>
</g>
</defs>

<g transform="matrix( 1, 0, 0, 1, 0,0) ">
<use xlink:href="#Layer0_0_FILL"/>
</g>

<g transform="matrix( 1, 0, 0, 1, 0,0) ">
<use xlink:href="#Layer0_1_MEMBER_0_MEMBER_0_MEMBER_0_FILL"/>
</g>

<g transform="matrix( 1, 0, 0, 1, 0,0) ">
<use xlink:href="#Layer0_2_MEMBER_0_MEMBER_0_MEMBER_0_FILL"/>
</g>

<g transform="matrix( 1, 0, 0, 1, 0,0) ">
<use xlink:href="#Layer0_3_MEMBER_0_MEMBER_0_MEMBER_0_FILL"/>
</g>

<g transform="matrix( 1, 0, 0, 1, 0,0) ">
<use xlink:href="#Layer0_4_MEMBER_0_MEMBER_0_MEMBER_0_FILL"/>
</g>

<g transform="matrix( 1, 0, 0, 1, 0,0) ">
<use xlink:href="#Layer0_5_MEMBER_0_MEMBER_0_MEMBER_0_FILL"/>
</g>

<g transform="matrix( 1, 0, 0, 1, 0,0) ">
<use xlink:href="#Layer0_6_MEMBER_0_MEMBER_0_MEMBER_0_FILL"/>
</g>

<g transform="matrix( 1, 0, 0, 1, 0,0) ">
<use xlink:href="#Layer0_7_MEMBER_0_MEMBER_0_MEMBER_0_FILL"/>
</g>

<g transform="matrix( 1, 0, 0, 1, 0,0) ">
<use xlink:href="#Layer0_8_MEMBER_0_MEMBER_0_MEMBER_0_FILL"/>
</g>

<g transform="matrix( 1, 0, 0, 1, 0,0) ">
<use xlink:href="#Layer0_9_MEMBER_0_MEMBER_0_MEMBER_0_FILL"/>
</g>

<g transform="matrix( 1, 0, 0, 1, 0,0) ">
<use xlink:href="#Layer0_10_MEMBER_0_MEMBER_0_MEMBER_0_FILL"/>
</g>

<g transform="matrix( 1, 0, 0, 1, 0,0) ">
<use xlink:href="#Layer0_11_MEMBER_0_MEMBER_0_MEMBER_0_FILL"/>
</g>

<g transform="matrix( 1, 0, 0, 1, 0,0) ">
<use xlink:href="#Layer0_12_MEMBER_0_MEMBER_0_MEMBER_0_FILL"/>
</g>

<g transform="matrix( 1, 0, 0, 1, 0,0) ">
<use xlink:href="#Layer0_13_MEMBER_0_MEMBER_0_MEMBER_0_FILL"/>
</g>

<g transform="matrix( 1, 0, 0, 1, 0,0) ">
<use xlink:href="#Layer0_14_MEMBER_0_MEMBER_0_MEMBER_0_FILL"/>
</g>

<g transform="matrix( 1, 0, 0, 1, 0,0) ">
<use xlink:href="#Layer0_15_MEMBER_0_MEMBER_0_MEMBER_0_FILL"/>
</g>

<g transform="matrix( 1, 0, 0, 1, 0,0) ">
<use xlink:href="#Layer0_16_MEMBER_0_MEMBER_0_MEMBER_0_FILL"/>
</g>

<g transform="matrix( 1, 0, 0, 1, 0,0) ">
<use xlink:href="#Layer0_17_MEMBER_0_MEMBER_0_MEMBER_0_FILL"/>
</g>

<g transform="matrix( 1, 0, 0, 1, 0,0) ">
<use xlink:href="#Layer0_18_MEMBER_0_MEMBER_0_MEMBER_0_FILL"/>
</g>

<g transform="matrix( 1, 0, 0, 1, 0,0) ">
<use xlink:href="#Layer0_19_MEMBER_0_MEMBER_0_MEMBER_0_FILL"/>
</g>

<g transform="matrix( 1, 0, 0, 1, 0,0) ">
<use xlink:href="#Layer0_20_MEMBER_0_MEMBER_0_MEMBER_0_FILL"/>
</g>

<g transform="matrix( 1, 0, 0, 1, 0,0) ">
<use xlink:href="#Layer0_21_MEMBER_0_MEMBER_0_MEMBER_0_FILL"/>
</g>

<g transform="matrix( 1, 0, 0, 1, 0,0) ">
<use xlink:href="#Layer0_22_MEMBER_0_MEMBER_0_MEMBER_0_FILL"/>
</g>

<g transform="matrix( 1, 0, 0, 1, 0,0) ">
<use xlink:href="#Layer0_23_MEMBER_0_MEMBER_0_MEMBER_0_FILL"/>
</g>

<g transform="matrix( 1, 0, 0, 1, 0,0) ">
<use xlink:href="#Layer0_24_MEMBER_0_MEMBER_0_MEMBER_0_FILL"/>
</g>

<g transform="matrix( 1, 0, 0, 1, 0,0) ">
<use xlink:href="#Layer0_25_MEMBER_0_MEMBER_0_MEMBER_0_FILL"/>
</g>

<g transform="matrix( 1, 0, 0, 1, 0,0) ">
<use xlink:href="#Layer0_26_MEMBER_0_MEMBER_0_MEMBER_0_FILL"/>
</g>

<g transform="matrix( 1, 0, 0, 1, 0,350) ">
<use xlink:href="#Layer0_27_MEMBER_0_MEMBER_0_MEMBER_0_FILL"/>
</g>

<g transform="matrix( 1, 0, 0, 1, 0,350) ">
<use xlink:href="#Layer0_28_MEMBER_0_MEMBER_0_MEMBER_0_FILL"/>
</g>

<g transform="matrix( 1, 0, 0, 1, 70,350) ">
<use xlink:href="#Layer0_29_MEMBER_0_MEMBER_0_MEMBER_0_FILL"/>
</g>

<g transform="matrix( 1, 0, 0, 1, 140,350) ">
<use xlink:href="#Layer0_30_MEMBER_0_MEMBER_0_MEMBER_0_FILL"/>
</g>
</svg>
